<mxfile host="app.diagrams.net" modified="2024-07-05T04:14:55.962Z" agent="Mozilla/5.0 (Windows NT 10.0; Win64; x64) AppleWebKit/537.36 (KHTML, like Gecko) Chrome/126.0.0.0 Safari/537.36" etag="y-TUSNgPSPV0VPan5aTm" version="24.6.4" type="github">
  <diagram name="หน้า-1" id="B5zcFU9d4dR4DY5p531h">
    <mxGraphModel dx="2647" dy="1373" grid="1" gridSize="10" guides="1" tooltips="1" connect="1" arrows="1" fold="1" page="1" pageScale="1" pageWidth="827" pageHeight="1169" math="0" shadow="0">
      <root>
        <mxCell id="0" />
        <mxCell id="1" parent="0" />
        <mxCell id="WWX5XaUObiMr8XffinVP-1" style="edgeStyle=orthogonalEdgeStyle;rounded=0;orthogonalLoop=1;jettySize=auto;html=1;" edge="1" parent="1" source="WWX5XaUObiMr8XffinVP-2" target="WWX5XaUObiMr8XffinVP-3">
          <mxGeometry relative="1" as="geometry" />
        </mxCell>
        <mxCell id="WWX5XaUObiMr8XffinVP-2" value="start" style="ellipse;whiteSpace=wrap;html=1;" vertex="1" parent="1">
          <mxGeometry x="170" y="70" width="120" height="50" as="geometry" />
        </mxCell>
        <mxCell id="WWX5XaUObiMr8XffinVP-3" value="ธนบัตร 500 = 0 ใบ" style="shape=parallelogram;perimeter=parallelogramPerimeter;whiteSpace=wrap;html=1;fixedSize=1;" vertex="1" parent="1">
          <mxGeometry x="150" y="140" width="160" height="60" as="geometry" />
        </mxCell>
        <mxCell id="WWX5XaUObiMr8XffinVP-4" style="edgeStyle=orthogonalEdgeStyle;rounded=0;orthogonalLoop=1;jettySize=auto;html=1;" edge="1" parent="1" target="WWX5XaUObiMr8XffinVP-6">
          <mxGeometry relative="1" as="geometry">
            <mxPoint x="230" y="200" as="sourcePoint" />
          </mxGeometry>
        </mxCell>
        <mxCell id="WWX5XaUObiMr8XffinVP-5" value="" style="edgeStyle=orthogonalEdgeStyle;rounded=0;orthogonalLoop=1;jettySize=auto;html=1;" edge="1" parent="1" source="WWX5XaUObiMr8XffinVP-6" target="WWX5XaUObiMr8XffinVP-8">
          <mxGeometry relative="1" as="geometry" />
        </mxCell>
        <mxCell id="WWX5XaUObiMr8XffinVP-6" value="ธนบัตร 100 = 5 ใบ" style="shape=parallelogram;perimeter=parallelogramPerimeter;whiteSpace=wrap;html=1;fixedSize=1;" vertex="1" parent="1">
          <mxGeometry x="150" y="230" width="160" height="60" as="geometry" />
        </mxCell>
        <mxCell id="WWX5XaUObiMr8XffinVP-7" value="" style="edgeStyle=orthogonalEdgeStyle;rounded=0;orthogonalLoop=1;jettySize=auto;html=1;" edge="1" parent="1" source="WWX5XaUObiMr8XffinVP-8" target="WWX5XaUObiMr8XffinVP-10">
          <mxGeometry relative="1" as="geometry" />
        </mxCell>
        <mxCell id="WWX5XaUObiMr8XffinVP-8" value="ธนบัตร 50 = 20 ใบ" style="shape=parallelogram;perimeter=parallelogramPerimeter;whiteSpace=wrap;html=1;fixedSize=1;" vertex="1" parent="1">
          <mxGeometry x="150" y="320" width="160" height="60" as="geometry" />
        </mxCell>
        <mxCell id="WWX5XaUObiMr8XffinVP-9" value="" style="edgeStyle=orthogonalEdgeStyle;rounded=0;orthogonalLoop=1;jettySize=auto;html=1;" edge="1" parent="1" source="WWX5XaUObiMr8XffinVP-10" target="WWX5XaUObiMr8XffinVP-13">
          <mxGeometry relative="1" as="geometry" />
        </mxCell>
        <mxCell id="WWX5XaUObiMr8XffinVP-10" value="ธนบัตร 20 = 10 ใบ" style="shape=parallelogram;perimeter=parallelogramPerimeter;whiteSpace=wrap;html=1;fixedSize=1;" vertex="1" parent="1">
          <mxGeometry x="150" y="410" width="160" height="60" as="geometry" />
        </mxCell>
        <mxCell id="WWX5XaUObiMr8XffinVP-11" value="เหรียญ 10 = 1,000 เหรียญ" style="shape=parallelogram;perimeter=parallelogramPerimeter;whiteSpace=wrap;html=1;fixedSize=1;" vertex="1" parent="1">
          <mxGeometry x="150" y="500" width="160" height="60" as="geometry" />
        </mxCell>
        <mxCell id="WWX5XaUObiMr8XffinVP-12" value="" style="edgeStyle=orthogonalEdgeStyle;rounded=0;orthogonalLoop=1;jettySize=auto;html=1;" edge="1" parent="1" source="WWX5XaUObiMr8XffinVP-13" target="WWX5XaUObiMr8XffinVP-15">
          <mxGeometry relative="1" as="geometry" />
        </mxCell>
        <mxCell id="WWX5XaUObiMr8XffinVP-13" value="เหรียญ 5 = 100 เหรียญ" style="shape=parallelogram;perimeter=parallelogramPerimeter;whiteSpace=wrap;html=1;fixedSize=1;" vertex="1" parent="1">
          <mxGeometry x="150" y="585" width="160" height="60" as="geometry" />
        </mxCell>
        <mxCell id="WWX5XaUObiMr8XffinVP-14" value="" style="edgeStyle=orthogonalEdgeStyle;rounded=0;orthogonalLoop=1;jettySize=auto;html=1;" edge="1" parent="1" source="WWX5XaUObiMr8XffinVP-15" target="WWX5XaUObiMr8XffinVP-17">
          <mxGeometry relative="1" as="geometry" />
        </mxCell>
        <mxCell id="WWX5XaUObiMr8XffinVP-15" value="กำหนด y = จำนวนเงินที่ต้องทอน&amp;nbsp;" style="shape=parallelogram;perimeter=parallelogramPerimeter;whiteSpace=wrap;html=1;fixedSize=1;" vertex="1" parent="1">
          <mxGeometry x="150" y="680" width="160" height="60" as="geometry" />
        </mxCell>
        <mxCell id="WWX5XaUObiMr8XffinVP-16" value="" style="edgeStyle=orthogonalEdgeStyle;rounded=0;orthogonalLoop=1;jettySize=auto;html=1;" edge="1" parent="1" source="WWX5XaUObiMr8XffinVP-17" target="WWX5XaUObiMr8XffinVP-19">
          <mxGeometry relative="1" as="geometry" />
        </mxCell>
        <mxCell id="WWX5XaUObiMr8XffinVP-17" value="รับค่าราคาของที่กดในตู้กด" style="shape=parallelogram;perimeter=parallelogramPerimeter;whiteSpace=wrap;html=1;fixedSize=1;" vertex="1" parent="1">
          <mxGeometry x="150" y="770" width="160" height="60" as="geometry" />
        </mxCell>
        <mxCell id="WWX5XaUObiMr8XffinVP-18" value="" style="edgeStyle=orthogonalEdgeStyle;rounded=0;orthogonalLoop=1;jettySize=auto;html=1;" edge="1" parent="1" source="WWX5XaUObiMr8XffinVP-19" target="WWX5XaUObiMr8XffinVP-21">
          <mxGeometry relative="1" as="geometry" />
        </mxCell>
        <mxCell id="WWX5XaUObiMr8XffinVP-19" value="กำหนดราคาของที่กด = 45" style="shape=parallelogram;perimeter=parallelogramPerimeter;whiteSpace=wrap;html=1;fixedSize=1;" vertex="1" parent="1">
          <mxGeometry x="150" y="860" width="160" height="60" as="geometry" />
        </mxCell>
        <mxCell id="WWX5XaUObiMr8XffinVP-20" value="" style="edgeStyle=orthogonalEdgeStyle;rounded=0;orthogonalLoop=1;jettySize=auto;html=1;" edge="1" parent="1" source="WWX5XaUObiMr8XffinVP-21" target="WWX5XaUObiMr8XffinVP-23">
          <mxGeometry relative="1" as="geometry" />
        </mxCell>
        <mxCell id="WWX5XaUObiMr8XffinVP-21" value="แทน x = ธนบัตร 1,000" style="shape=parallelogram;perimeter=parallelogramPerimeter;whiteSpace=wrap;html=1;fixedSize=1;" vertex="1" parent="1">
          <mxGeometry x="150" y="950" width="160" height="60" as="geometry" />
        </mxCell>
        <mxCell id="WWX5XaUObiMr8XffinVP-22" value="" style="edgeStyle=orthogonalEdgeStyle;rounded=0;orthogonalLoop=1;jettySize=auto;html=1;" edge="1" parent="1" source="WWX5XaUObiMr8XffinVP-23" target="WWX5XaUObiMr8XffinVP-25">
          <mxGeometry relative="1" as="geometry" />
        </mxCell>
        <mxCell id="WWX5XaUObiMr8XffinVP-23" value="ใส่ธนบัตร 1,000 ในตู้" style="whiteSpace=wrap;html=1;" vertex="1" parent="1">
          <mxGeometry x="170" y="1040" width="120" height="60" as="geometry" />
        </mxCell>
        <mxCell id="WWX5XaUObiMr8XffinVP-24" value="" style="edgeStyle=orthogonalEdgeStyle;rounded=0;orthogonalLoop=1;jettySize=auto;html=1;" edge="1" parent="1" source="WWX5XaUObiMr8XffinVP-25" target="WWX5XaUObiMr8XffinVP-28">
          <mxGeometry relative="1" as="geometry" />
        </mxCell>
        <mxCell id="WWX5XaUObiMr8XffinVP-25" value="Total =ยอดเงินในตู้" style="whiteSpace=wrap;html=1;" vertex="1" parent="1">
          <mxGeometry x="170" y="1130" width="120" height="40" as="geometry" />
        </mxCell>
        <mxCell id="WWX5XaUObiMr8XffinVP-26" value="" style="edgeStyle=orthogonalEdgeStyle;rounded=0;orthogonalLoop=1;jettySize=auto;html=1;" edge="1" parent="1" source="WWX5XaUObiMr8XffinVP-28" target="WWX5XaUObiMr8XffinVP-30">
          <mxGeometry relative="1" as="geometry" />
        </mxCell>
        <mxCell id="WWX5XaUObiMr8XffinVP-27" value="" style="edgeStyle=orthogonalEdgeStyle;rounded=0;orthogonalLoop=1;jettySize=auto;html=1;" edge="1" parent="1" source="WWX5XaUObiMr8XffinVP-28" target="WWX5XaUObiMr8XffinVP-32">
          <mxGeometry relative="1" as="geometry" />
        </mxCell>
        <mxCell id="WWX5XaUObiMr8XffinVP-28" value="ยอดเงินในตู้ - เงินที่ต้องทอน&lt;div&gt;&amp;gt; 0 หรือไม่&lt;/div&gt;" style="rhombus;whiteSpace=wrap;html=1;" vertex="1" parent="1">
          <mxGeometry x="170" y="1200" width="120" height="100" as="geometry" />
        </mxCell>
        <mxCell id="WWX5XaUObiMr8XffinVP-29" value="" style="edgeStyle=orthogonalEdgeStyle;rounded=0;orthogonalLoop=1;jettySize=auto;html=1;" edge="1" parent="1" source="WWX5XaUObiMr8XffinVP-30" target="WWX5XaUObiMr8XffinVP-37">
          <mxGeometry relative="1" as="geometry" />
        </mxCell>
        <mxCell id="WWX5XaUObiMr8XffinVP-30" value="คำนวณเงินทอน&lt;div&gt;y = x - 45&lt;/div&gt;" style="whiteSpace=wrap;html=1;" vertex="1" parent="1">
          <mxGeometry x="170" y="1330" width="120" height="50" as="geometry" />
        </mxCell>
        <mxCell id="WWX5XaUObiMr8XffinVP-31" value="" style="edgeStyle=orthogonalEdgeStyle;rounded=0;orthogonalLoop=1;jettySize=auto;html=1;" edge="1" parent="1" source="WWX5XaUObiMr8XffinVP-32" target="WWX5XaUObiMr8XffinVP-34">
          <mxGeometry relative="1" as="geometry" />
        </mxCell>
        <mxCell id="WWX5XaUObiMr8XffinVP-32" value="แสดงผลบนหน้าจอว่ายอดเงินทอนไม่พอ" style="shape=parallelogram;perimeter=parallelogramPerimeter;whiteSpace=wrap;html=1;fixedSize=1;" vertex="1" parent="1">
          <mxGeometry x="350" y="1220" width="160" height="60" as="geometry" />
        </mxCell>
        <mxCell id="WWX5XaUObiMr8XffinVP-33" value="" style="edgeStyle=orthogonalEdgeStyle;rounded=0;orthogonalLoop=1;jettySize=auto;html=1;" edge="1" parent="1" source="WWX5XaUObiMr8XffinVP-34" target="WWX5XaUObiMr8XffinVP-35">
          <mxGeometry relative="1" as="geometry" />
        </mxCell>
        <mxCell id="WWX5XaUObiMr8XffinVP-34" value="คืนธนบัตร 1,000" style="whiteSpace=wrap;html=1;" vertex="1" parent="1">
          <mxGeometry x="550" y="1220" width="120" height="60" as="geometry" />
        </mxCell>
        <mxCell id="WWX5XaUObiMr8XffinVP-35" value="End" style="ellipse;whiteSpace=wrap;html=1;" vertex="1" parent="1">
          <mxGeometry x="550" y="1310" width="120" height="50" as="geometry" />
        </mxCell>
        <mxCell id="WWX5XaUObiMr8XffinVP-36" value="" style="edgeStyle=orthogonalEdgeStyle;rounded=0;orthogonalLoop=1;jettySize=auto;html=1;" edge="1" parent="1" source="WWX5XaUObiMr8XffinVP-37" target="WWX5XaUObiMr8XffinVP-39">
          <mxGeometry relative="1" as="geometry" />
        </mxCell>
        <mxCell id="WWX5XaUObiMr8XffinVP-37" value="x &amp;gt;= 500" style="rhombus;whiteSpace=wrap;html=1;" vertex="1" parent="1">
          <mxGeometry x="170" y="1420" width="120" height="100" as="geometry" />
        </mxCell>
        <mxCell id="WWX5XaUObiMr8XffinVP-38" value="" style="edgeStyle=orthogonalEdgeStyle;rounded=0;orthogonalLoop=1;jettySize=auto;html=1;" edge="1" parent="1" source="WWX5XaUObiMr8XffinVP-39" target="WWX5XaUObiMr8XffinVP-41">
          <mxGeometry relative="1" as="geometry" />
        </mxCell>
        <mxCell id="WWX5XaUObiMr8XffinVP-39" value="ธนบัตร 500 == 0" style="rhombus;whiteSpace=wrap;html=1;" vertex="1" parent="1">
          <mxGeometry x="170" y="1550" width="120" height="100" as="geometry" />
        </mxCell>
        <mxCell id="WWX5XaUObiMr8XffinVP-40" value="" style="edgeStyle=orthogonalEdgeStyle;rounded=0;orthogonalLoop=1;jettySize=auto;html=1;" edge="1" parent="1" source="WWX5XaUObiMr8XffinVP-41" target="WWX5XaUObiMr8XffinVP-43">
          <mxGeometry relative="1" as="geometry" />
        </mxCell>
        <mxCell id="WWX5XaUObiMr8XffinVP-41" value="x = x - 500" style="whiteSpace=wrap;html=1;" vertex="1" parent="1">
          <mxGeometry x="170" y="1680" width="120" height="60" as="geometry" />
        </mxCell>
        <mxCell id="WWX5XaUObiMr8XffinVP-42" value="" style="edgeStyle=orthogonalEdgeStyle;rounded=0;orthogonalLoop=1;jettySize=auto;html=1;" edge="1" parent="1" source="WWX5XaUObiMr8XffinVP-43" target="WWX5XaUObiMr8XffinVP-45">
          <mxGeometry relative="1" as="geometry" />
        </mxCell>
        <mxCell id="WWX5XaUObiMr8XffinVP-43" value="ธนบัตร 500 = ธนบัตร 500 - 1" style="whiteSpace=wrap;html=1;" vertex="1" parent="1">
          <mxGeometry x="170" y="1770" width="120" height="60" as="geometry" />
        </mxCell>
        <mxCell id="WWX5XaUObiMr8XffinVP-44" style="edgeStyle=orthogonalEdgeStyle;rounded=0;orthogonalLoop=1;jettySize=auto;html=1;exitX=0.5;exitY=1;exitDx=0;exitDy=0;" edge="1" parent="1" source="WWX5XaUObiMr8XffinVP-41" target="WWX5XaUObiMr8XffinVP-41">
          <mxGeometry relative="1" as="geometry" />
        </mxCell>
        <mxCell id="WWX5XaUObiMr8XffinVP-45" value="y = y + 1" style="whiteSpace=wrap;html=1;" vertex="1" parent="1">
          <mxGeometry x="170" y="1860" width="120" height="60" as="geometry" />
        </mxCell>
        <mxCell id="WWX5XaUObiMr8XffinVP-46" value="" style="endArrow=none;html=1;rounded=0;" edge="1" parent="1">
          <mxGeometry width="50" height="50" relative="1" as="geometry">
            <mxPoint x="230" y="1950" as="sourcePoint" />
            <mxPoint x="130" y="1950" as="targetPoint" />
          </mxGeometry>
        </mxCell>
        <mxCell id="WWX5XaUObiMr8XffinVP-47" value="" style="endArrow=none;html=1;rounded=0;" edge="1" parent="1">
          <mxGeometry width="50" height="50" relative="1" as="geometry">
            <mxPoint x="130" y="1950" as="sourcePoint" />
            <mxPoint x="130" y="1400" as="targetPoint" />
          </mxGeometry>
        </mxCell>
        <mxCell id="WWX5XaUObiMr8XffinVP-48" value="" style="endArrow=classic;html=1;rounded=0;" edge="1" parent="1">
          <mxGeometry width="50" height="50" relative="1" as="geometry">
            <mxPoint x="130" y="1400" as="sourcePoint" />
            <mxPoint x="230" y="1400" as="targetPoint" />
          </mxGeometry>
        </mxCell>
        <mxCell id="WWX5XaUObiMr8XffinVP-49" value="" style="endArrow=none;html=1;rounded=0;entryX=0.5;entryY=1;entryDx=0;entryDy=0;" edge="1" parent="1" target="WWX5XaUObiMr8XffinVP-45">
          <mxGeometry width="50" height="50" relative="1" as="geometry">
            <mxPoint x="230" y="1950" as="sourcePoint" />
            <mxPoint x="330" y="1890" as="targetPoint" />
          </mxGeometry>
        </mxCell>
        <mxCell id="WWX5XaUObiMr8XffinVP-50" value="" style="endArrow=none;html=1;rounded=0;" edge="1" parent="1">
          <mxGeometry width="50" height="50" relative="1" as="geometry">
            <mxPoint x="290" y="1470" as="sourcePoint" />
            <mxPoint x="470" y="1470" as="targetPoint" />
          </mxGeometry>
        </mxCell>
        <mxCell id="WWX5XaUObiMr8XffinVP-51" value="" style="endArrow=classic;html=1;rounded=0;" edge="1" parent="1" target="WWX5XaUObiMr8XffinVP-52">
          <mxGeometry width="50" height="50" relative="1" as="geometry">
            <mxPoint x="470" y="1470" as="sourcePoint" />
            <mxPoint x="470" y="1500" as="targetPoint" />
          </mxGeometry>
        </mxCell>
        <mxCell id="WWX5XaUObiMr8XffinVP-52" value="" style="ellipse;whiteSpace=wrap;html=1;aspect=fixed;" vertex="1" parent="1">
          <mxGeometry x="460" y="1500" width="20" height="20" as="geometry" />
        </mxCell>
        <mxCell id="WWX5XaUObiMr8XffinVP-53" value="" style="edgeStyle=orthogonalEdgeStyle;rounded=0;orthogonalLoop=1;jettySize=auto;html=1;" edge="1" parent="1" target="WWX5XaUObiMr8XffinVP-55">
          <mxGeometry relative="1" as="geometry">
            <mxPoint x="470" y="1520" as="sourcePoint" />
          </mxGeometry>
        </mxCell>
        <mxCell id="WWX5XaUObiMr8XffinVP-54" value="" style="edgeStyle=orthogonalEdgeStyle;rounded=0;orthogonalLoop=1;jettySize=auto;html=1;" edge="1" parent="1" source="WWX5XaUObiMr8XffinVP-55" target="WWX5XaUObiMr8XffinVP-57">
          <mxGeometry relative="1" as="geometry" />
        </mxCell>
        <mxCell id="WWX5XaUObiMr8XffinVP-55" value="x &amp;gt;= 100" style="rhombus;whiteSpace=wrap;html=1;" vertex="1" parent="1">
          <mxGeometry x="410" y="1560" width="120" height="100" as="geometry" />
        </mxCell>
        <mxCell id="WWX5XaUObiMr8XffinVP-56" value="" style="edgeStyle=orthogonalEdgeStyle;rounded=0;orthogonalLoop=1;jettySize=auto;html=1;" edge="1" parent="1" source="WWX5XaUObiMr8XffinVP-57" target="WWX5XaUObiMr8XffinVP-59">
          <mxGeometry relative="1" as="geometry" />
        </mxCell>
        <mxCell id="WWX5XaUObiMr8XffinVP-57" value="ธนบัตร 100 == 0" style="rhombus;whiteSpace=wrap;html=1;" vertex="1" parent="1">
          <mxGeometry x="410" y="1690" width="120" height="100" as="geometry" />
        </mxCell>
        <mxCell id="WWX5XaUObiMr8XffinVP-58" value="" style="edgeStyle=orthogonalEdgeStyle;rounded=0;orthogonalLoop=1;jettySize=auto;html=1;" edge="1" parent="1" source="WWX5XaUObiMr8XffinVP-59" target="WWX5XaUObiMr8XffinVP-61">
          <mxGeometry relative="1" as="geometry" />
        </mxCell>
        <mxCell id="WWX5XaUObiMr8XffinVP-59" value="x = x - 100" style="whiteSpace=wrap;html=1;" vertex="1" parent="1">
          <mxGeometry x="410" y="1820" width="120" height="60" as="geometry" />
        </mxCell>
        <mxCell id="WWX5XaUObiMr8XffinVP-60" value="" style="edgeStyle=orthogonalEdgeStyle;rounded=0;orthogonalLoop=1;jettySize=auto;html=1;" edge="1" parent="1" source="WWX5XaUObiMr8XffinVP-61" target="WWX5XaUObiMr8XffinVP-63">
          <mxGeometry relative="1" as="geometry" />
        </mxCell>
        <mxCell id="WWX5XaUObiMr8XffinVP-61" value="ธนบัตร 100 = ธนบัตร 100 - 1" style="whiteSpace=wrap;html=1;" vertex="1" parent="1">
          <mxGeometry x="410" y="1910" width="120" height="60" as="geometry" />
        </mxCell>
        <mxCell id="WWX5XaUObiMr8XffinVP-62" style="edgeStyle=orthogonalEdgeStyle;rounded=0;orthogonalLoop=1;jettySize=auto;html=1;exitX=0.5;exitY=1;exitDx=0;exitDy=0;" edge="1" parent="1" source="WWX5XaUObiMr8XffinVP-59" target="WWX5XaUObiMr8XffinVP-59">
          <mxGeometry relative="1" as="geometry" />
        </mxCell>
        <mxCell id="WWX5XaUObiMr8XffinVP-63" value="y = y + 1" style="whiteSpace=wrap;html=1;" vertex="1" parent="1">
          <mxGeometry x="410" y="2000" width="120" height="60" as="geometry" />
        </mxCell>
        <mxCell id="WWX5XaUObiMr8XffinVP-64" value="" style="endArrow=none;html=1;rounded=0;" edge="1" parent="1">
          <mxGeometry width="50" height="50" relative="1" as="geometry">
            <mxPoint x="470" y="2090" as="sourcePoint" />
            <mxPoint x="370" y="2090" as="targetPoint" />
          </mxGeometry>
        </mxCell>
        <mxCell id="WWX5XaUObiMr8XffinVP-65" value="" style="endArrow=none;html=1;rounded=0;" edge="1" parent="1">
          <mxGeometry width="50" height="50" relative="1" as="geometry">
            <mxPoint x="370" y="2090" as="sourcePoint" />
            <mxPoint x="370" y="1510" as="targetPoint" />
          </mxGeometry>
        </mxCell>
        <mxCell id="WWX5XaUObiMr8XffinVP-66" value="" style="endArrow=classic;html=1;rounded=0;" edge="1" parent="1">
          <mxGeometry width="50" height="50" relative="1" as="geometry">
            <mxPoint x="370" y="1510" as="sourcePoint" />
            <mxPoint x="460" y="1509.44" as="targetPoint" />
          </mxGeometry>
        </mxCell>
        <mxCell id="WWX5XaUObiMr8XffinVP-67" value="" style="endArrow=none;html=1;rounded=0;entryX=0.5;entryY=1;entryDx=0;entryDy=0;" edge="1" parent="1" target="WWX5XaUObiMr8XffinVP-63">
          <mxGeometry width="50" height="50" relative="1" as="geometry">
            <mxPoint x="470" y="2090" as="sourcePoint" />
            <mxPoint x="570" y="2030" as="targetPoint" />
          </mxGeometry>
        </mxCell>
        <mxCell id="WWX5XaUObiMr8XffinVP-68" value="" style="endArrow=none;html=1;rounded=0;" edge="1" parent="1">
          <mxGeometry width="50" height="50" relative="1" as="geometry">
            <mxPoint x="290" y="1600" as="sourcePoint" />
            <mxPoint x="330" y="1600" as="targetPoint" />
          </mxGeometry>
        </mxCell>
        <mxCell id="WWX5XaUObiMr8XffinVP-69" value="" style="endArrow=classic;html=1;rounded=0;" edge="1" parent="1">
          <mxGeometry width="50" height="50" relative="1" as="geometry">
            <mxPoint x="330" y="1600" as="sourcePoint" />
            <mxPoint x="330" y="1470" as="targetPoint" />
          </mxGeometry>
        </mxCell>
        <mxCell id="WWX5XaUObiMr8XffinVP-70" value="" style="endArrow=none;html=1;rounded=0;" edge="1" parent="1">
          <mxGeometry width="50" height="50" relative="1" as="geometry">
            <mxPoint x="530" y="1610" as="sourcePoint" />
            <mxPoint x="710" y="1610" as="targetPoint" />
          </mxGeometry>
        </mxCell>
        <mxCell id="WWX5XaUObiMr8XffinVP-71" value="" style="endArrow=classic;html=1;rounded=0;" edge="1" parent="1" target="WWX5XaUObiMr8XffinVP-72">
          <mxGeometry width="50" height="50" relative="1" as="geometry">
            <mxPoint x="710" y="1610" as="sourcePoint" />
            <mxPoint x="710" y="1640" as="targetPoint" />
          </mxGeometry>
        </mxCell>
        <mxCell id="WWX5XaUObiMr8XffinVP-72" value="" style="ellipse;whiteSpace=wrap;html=1;aspect=fixed;" vertex="1" parent="1">
          <mxGeometry x="700" y="1640" width="20" height="20" as="geometry" />
        </mxCell>
        <mxCell id="WWX5XaUObiMr8XffinVP-73" value="" style="edgeStyle=orthogonalEdgeStyle;rounded=0;orthogonalLoop=1;jettySize=auto;html=1;" edge="1" parent="1" target="WWX5XaUObiMr8XffinVP-75">
          <mxGeometry relative="1" as="geometry">
            <mxPoint x="710" y="1660" as="sourcePoint" />
          </mxGeometry>
        </mxCell>
        <mxCell id="WWX5XaUObiMr8XffinVP-74" value="" style="edgeStyle=orthogonalEdgeStyle;rounded=0;orthogonalLoop=1;jettySize=auto;html=1;" edge="1" parent="1" source="WWX5XaUObiMr8XffinVP-75" target="WWX5XaUObiMr8XffinVP-77">
          <mxGeometry relative="1" as="geometry" />
        </mxCell>
        <mxCell id="WWX5XaUObiMr8XffinVP-75" value="x &amp;gt;= 50" style="rhombus;whiteSpace=wrap;html=1;" vertex="1" parent="1">
          <mxGeometry x="650" y="1700" width="120" height="100" as="geometry" />
        </mxCell>
        <mxCell id="WWX5XaUObiMr8XffinVP-76" value="" style="edgeStyle=orthogonalEdgeStyle;rounded=0;orthogonalLoop=1;jettySize=auto;html=1;" edge="1" parent="1" source="WWX5XaUObiMr8XffinVP-77" target="WWX5XaUObiMr8XffinVP-79">
          <mxGeometry relative="1" as="geometry" />
        </mxCell>
        <mxCell id="WWX5XaUObiMr8XffinVP-77" value="ธนบัตร 50 == 0" style="rhombus;whiteSpace=wrap;html=1;" vertex="1" parent="1">
          <mxGeometry x="650" y="1830" width="120" height="100" as="geometry" />
        </mxCell>
        <mxCell id="WWX5XaUObiMr8XffinVP-78" value="" style="edgeStyle=orthogonalEdgeStyle;rounded=0;orthogonalLoop=1;jettySize=auto;html=1;" edge="1" parent="1" source="WWX5XaUObiMr8XffinVP-79" target="WWX5XaUObiMr8XffinVP-81">
          <mxGeometry relative="1" as="geometry" />
        </mxCell>
        <mxCell id="WWX5XaUObiMr8XffinVP-79" value="x = x - 50" style="whiteSpace=wrap;html=1;" vertex="1" parent="1">
          <mxGeometry x="650" y="1960" width="120" height="60" as="geometry" />
        </mxCell>
        <mxCell id="WWX5XaUObiMr8XffinVP-80" value="" style="edgeStyle=orthogonalEdgeStyle;rounded=0;orthogonalLoop=1;jettySize=auto;html=1;" edge="1" parent="1" source="WWX5XaUObiMr8XffinVP-81" target="WWX5XaUObiMr8XffinVP-83">
          <mxGeometry relative="1" as="geometry" />
        </mxCell>
        <mxCell id="WWX5XaUObiMr8XffinVP-81" value="ธนบัตร 100 = ธนบัตร 100 - 1" style="whiteSpace=wrap;html=1;" vertex="1" parent="1">
          <mxGeometry x="650" y="2050" width="120" height="60" as="geometry" />
        </mxCell>
        <mxCell id="WWX5XaUObiMr8XffinVP-82" style="edgeStyle=orthogonalEdgeStyle;rounded=0;orthogonalLoop=1;jettySize=auto;html=1;exitX=0.5;exitY=1;exitDx=0;exitDy=0;" edge="1" parent="1" source="WWX5XaUObiMr8XffinVP-79" target="WWX5XaUObiMr8XffinVP-79">
          <mxGeometry relative="1" as="geometry" />
        </mxCell>
        <mxCell id="WWX5XaUObiMr8XffinVP-83" value="y = y + 1" style="whiteSpace=wrap;html=1;" vertex="1" parent="1">
          <mxGeometry x="650" y="2140" width="120" height="60" as="geometry" />
        </mxCell>
        <mxCell id="WWX5XaUObiMr8XffinVP-84" value="" style="endArrow=none;html=1;rounded=0;" edge="1" parent="1">
          <mxGeometry width="50" height="50" relative="1" as="geometry">
            <mxPoint x="710" y="2230" as="sourcePoint" />
            <mxPoint x="610" y="2230" as="targetPoint" />
          </mxGeometry>
        </mxCell>
        <mxCell id="WWX5XaUObiMr8XffinVP-85" value="" style="endArrow=none;html=1;rounded=0;" edge="1" parent="1">
          <mxGeometry width="50" height="50" relative="1" as="geometry">
            <mxPoint x="610" y="2230" as="sourcePoint" />
            <mxPoint x="610" y="1650" as="targetPoint" />
          </mxGeometry>
        </mxCell>
        <mxCell id="WWX5XaUObiMr8XffinVP-86" value="" style="endArrow=classic;html=1;rounded=0;" edge="1" parent="1">
          <mxGeometry width="50" height="50" relative="1" as="geometry">
            <mxPoint x="610" y="1650" as="sourcePoint" />
            <mxPoint x="700" y="1649.44" as="targetPoint" />
          </mxGeometry>
        </mxCell>
        <mxCell id="WWX5XaUObiMr8XffinVP-87" value="" style="endArrow=none;html=1;rounded=0;entryX=0.5;entryY=1;entryDx=0;entryDy=0;" edge="1" parent="1" target="WWX5XaUObiMr8XffinVP-83">
          <mxGeometry width="50" height="50" relative="1" as="geometry">
            <mxPoint x="710" y="2230" as="sourcePoint" />
            <mxPoint x="810" y="2170" as="targetPoint" />
          </mxGeometry>
        </mxCell>
        <mxCell id="WWX5XaUObiMr8XffinVP-88" value="" style="endArrow=none;html=1;rounded=0;" edge="1" parent="1">
          <mxGeometry width="50" height="50" relative="1" as="geometry">
            <mxPoint x="530" y="1740" as="sourcePoint" />
            <mxPoint x="570" y="1740" as="targetPoint" />
          </mxGeometry>
        </mxCell>
        <mxCell id="WWX5XaUObiMr8XffinVP-89" value="" style="endArrow=classic;html=1;rounded=0;" edge="1" parent="1">
          <mxGeometry width="50" height="50" relative="1" as="geometry">
            <mxPoint x="570" y="1740" as="sourcePoint" />
            <mxPoint x="570" y="1610" as="targetPoint" />
          </mxGeometry>
        </mxCell>
        <mxCell id="WWX5XaUObiMr8XffinVP-90" value="" style="endArrow=none;html=1;rounded=0;" edge="1" parent="1">
          <mxGeometry width="50" height="50" relative="1" as="geometry">
            <mxPoint x="770" y="1750" as="sourcePoint" />
            <mxPoint x="950" y="1750" as="targetPoint" />
          </mxGeometry>
        </mxCell>
        <mxCell id="WWX5XaUObiMr8XffinVP-91" value="" style="endArrow=classic;html=1;rounded=0;" edge="1" parent="1" target="WWX5XaUObiMr8XffinVP-92">
          <mxGeometry width="50" height="50" relative="1" as="geometry">
            <mxPoint x="950" y="1750" as="sourcePoint" />
            <mxPoint x="950" y="1780" as="targetPoint" />
          </mxGeometry>
        </mxCell>
        <mxCell id="WWX5XaUObiMr8XffinVP-92" value="" style="ellipse;whiteSpace=wrap;html=1;aspect=fixed;" vertex="1" parent="1">
          <mxGeometry x="940" y="1780" width="20" height="20" as="geometry" />
        </mxCell>
        <mxCell id="WWX5XaUObiMr8XffinVP-93" value="" style="edgeStyle=orthogonalEdgeStyle;rounded=0;orthogonalLoop=1;jettySize=auto;html=1;" edge="1" parent="1" target="WWX5XaUObiMr8XffinVP-95">
          <mxGeometry relative="1" as="geometry">
            <mxPoint x="950" y="1800" as="sourcePoint" />
          </mxGeometry>
        </mxCell>
        <mxCell id="WWX5XaUObiMr8XffinVP-94" value="" style="edgeStyle=orthogonalEdgeStyle;rounded=0;orthogonalLoop=1;jettySize=auto;html=1;" edge="1" parent="1" source="WWX5XaUObiMr8XffinVP-95" target="WWX5XaUObiMr8XffinVP-97">
          <mxGeometry relative="1" as="geometry" />
        </mxCell>
        <mxCell id="WWX5XaUObiMr8XffinVP-95" value="x &amp;gt;= 20" style="rhombus;whiteSpace=wrap;html=1;" vertex="1" parent="1">
          <mxGeometry x="890" y="1840" width="120" height="100" as="geometry" />
        </mxCell>
        <mxCell id="WWX5XaUObiMr8XffinVP-96" value="" style="edgeStyle=orthogonalEdgeStyle;rounded=0;orthogonalLoop=1;jettySize=auto;html=1;" edge="1" parent="1" source="WWX5XaUObiMr8XffinVP-97" target="WWX5XaUObiMr8XffinVP-99">
          <mxGeometry relative="1" as="geometry" />
        </mxCell>
        <mxCell id="WWX5XaUObiMr8XffinVP-97" value="ธนบัตร 20 == 0" style="rhombus;whiteSpace=wrap;html=1;" vertex="1" parent="1">
          <mxGeometry x="890" y="1970" width="120" height="100" as="geometry" />
        </mxCell>
        <mxCell id="WWX5XaUObiMr8XffinVP-98" value="" style="edgeStyle=orthogonalEdgeStyle;rounded=0;orthogonalLoop=1;jettySize=auto;html=1;" edge="1" parent="1" source="WWX5XaUObiMr8XffinVP-99" target="WWX5XaUObiMr8XffinVP-101">
          <mxGeometry relative="1" as="geometry" />
        </mxCell>
        <mxCell id="WWX5XaUObiMr8XffinVP-99" value="x = x - 20" style="whiteSpace=wrap;html=1;" vertex="1" parent="1">
          <mxGeometry x="890" y="2100" width="120" height="60" as="geometry" />
        </mxCell>
        <mxCell id="WWX5XaUObiMr8XffinVP-100" value="" style="edgeStyle=orthogonalEdgeStyle;rounded=0;orthogonalLoop=1;jettySize=auto;html=1;" edge="1" parent="1" source="WWX5XaUObiMr8XffinVP-101" target="WWX5XaUObiMr8XffinVP-103">
          <mxGeometry relative="1" as="geometry" />
        </mxCell>
        <mxCell id="WWX5XaUObiMr8XffinVP-101" value="ธนบัตร 100 = ธนบัตร 100 - 1" style="whiteSpace=wrap;html=1;" vertex="1" parent="1">
          <mxGeometry x="890" y="2190" width="120" height="60" as="geometry" />
        </mxCell>
        <mxCell id="WWX5XaUObiMr8XffinVP-102" style="edgeStyle=orthogonalEdgeStyle;rounded=0;orthogonalLoop=1;jettySize=auto;html=1;exitX=0.5;exitY=1;exitDx=0;exitDy=0;" edge="1" parent="1" source="WWX5XaUObiMr8XffinVP-99" target="WWX5XaUObiMr8XffinVP-99">
          <mxGeometry relative="1" as="geometry" />
        </mxCell>
        <mxCell id="WWX5XaUObiMr8XffinVP-103" value="y = y + 1" style="whiteSpace=wrap;html=1;" vertex="1" parent="1">
          <mxGeometry x="890" y="2280" width="120" height="60" as="geometry" />
        </mxCell>
        <mxCell id="WWX5XaUObiMr8XffinVP-104" value="" style="endArrow=none;html=1;rounded=0;" edge="1" parent="1">
          <mxGeometry width="50" height="50" relative="1" as="geometry">
            <mxPoint x="950" y="2370" as="sourcePoint" />
            <mxPoint x="850" y="2370" as="targetPoint" />
          </mxGeometry>
        </mxCell>
        <mxCell id="WWX5XaUObiMr8XffinVP-105" value="" style="endArrow=none;html=1;rounded=0;" edge="1" parent="1">
          <mxGeometry width="50" height="50" relative="1" as="geometry">
            <mxPoint x="850" y="2370" as="sourcePoint" />
            <mxPoint x="850" y="1790" as="targetPoint" />
          </mxGeometry>
        </mxCell>
        <mxCell id="WWX5XaUObiMr8XffinVP-106" value="" style="endArrow=classic;html=1;rounded=0;" edge="1" parent="1">
          <mxGeometry width="50" height="50" relative="1" as="geometry">
            <mxPoint x="850" y="1790" as="sourcePoint" />
            <mxPoint x="940" y="1789.44" as="targetPoint" />
          </mxGeometry>
        </mxCell>
        <mxCell id="WWX5XaUObiMr8XffinVP-107" value="" style="endArrow=none;html=1;rounded=0;entryX=0.5;entryY=1;entryDx=0;entryDy=0;" edge="1" parent="1" target="WWX5XaUObiMr8XffinVP-103">
          <mxGeometry width="50" height="50" relative="1" as="geometry">
            <mxPoint x="950" y="2370" as="sourcePoint" />
            <mxPoint x="1050" y="2310" as="targetPoint" />
          </mxGeometry>
        </mxCell>
        <mxCell id="WWX5XaUObiMr8XffinVP-108" value="" style="endArrow=none;html=1;rounded=0;" edge="1" parent="1">
          <mxGeometry width="50" height="50" relative="1" as="geometry">
            <mxPoint x="770" y="1880" as="sourcePoint" />
            <mxPoint x="810" y="1880" as="targetPoint" />
          </mxGeometry>
        </mxCell>
        <mxCell id="WWX5XaUObiMr8XffinVP-109" value="" style="endArrow=classic;html=1;rounded=0;" edge="1" parent="1">
          <mxGeometry width="50" height="50" relative="1" as="geometry">
            <mxPoint x="810" y="1880" as="sourcePoint" />
            <mxPoint x="810" y="1750" as="targetPoint" />
          </mxGeometry>
        </mxCell>
        <mxCell id="WWX5XaUObiMr8XffinVP-110" value="" style="endArrow=none;html=1;rounded=0;" edge="1" parent="1">
          <mxGeometry width="50" height="50" relative="1" as="geometry">
            <mxPoint x="1010" y="1890" as="sourcePoint" />
            <mxPoint x="1190" y="1890" as="targetPoint" />
          </mxGeometry>
        </mxCell>
        <mxCell id="WWX5XaUObiMr8XffinVP-111" value="" style="endArrow=classic;html=1;rounded=0;" edge="1" parent="1" target="WWX5XaUObiMr8XffinVP-112">
          <mxGeometry width="50" height="50" relative="1" as="geometry">
            <mxPoint x="1190" y="1890" as="sourcePoint" />
            <mxPoint x="1190" y="1920" as="targetPoint" />
          </mxGeometry>
        </mxCell>
        <mxCell id="WWX5XaUObiMr8XffinVP-112" value="" style="ellipse;whiteSpace=wrap;html=1;aspect=fixed;" vertex="1" parent="1">
          <mxGeometry x="1180" y="1920" width="20" height="20" as="geometry" />
        </mxCell>
        <mxCell id="WWX5XaUObiMr8XffinVP-113" value="" style="edgeStyle=orthogonalEdgeStyle;rounded=0;orthogonalLoop=1;jettySize=auto;html=1;" edge="1" parent="1" target="WWX5XaUObiMr8XffinVP-115">
          <mxGeometry relative="1" as="geometry">
            <mxPoint x="1190" y="1940" as="sourcePoint" />
          </mxGeometry>
        </mxCell>
        <mxCell id="WWX5XaUObiMr8XffinVP-114" value="" style="edgeStyle=orthogonalEdgeStyle;rounded=0;orthogonalLoop=1;jettySize=auto;html=1;" edge="1" parent="1" source="WWX5XaUObiMr8XffinVP-115" target="WWX5XaUObiMr8XffinVP-117">
          <mxGeometry relative="1" as="geometry" />
        </mxCell>
        <mxCell id="WWX5XaUObiMr8XffinVP-115" value="x &amp;gt;= 10" style="rhombus;whiteSpace=wrap;html=1;" vertex="1" parent="1">
          <mxGeometry x="1130" y="1980" width="120" height="100" as="geometry" />
        </mxCell>
        <mxCell id="WWX5XaUObiMr8XffinVP-116" value="" style="edgeStyle=orthogonalEdgeStyle;rounded=0;orthogonalLoop=1;jettySize=auto;html=1;" edge="1" parent="1" source="WWX5XaUObiMr8XffinVP-117" target="WWX5XaUObiMr8XffinVP-119">
          <mxGeometry relative="1" as="geometry" />
        </mxCell>
        <mxCell id="WWX5XaUObiMr8XffinVP-117" value="เหรียญ 10 == 0" style="rhombus;whiteSpace=wrap;html=1;" vertex="1" parent="1">
          <mxGeometry x="1130" y="2110" width="120" height="100" as="geometry" />
        </mxCell>
        <mxCell id="WWX5XaUObiMr8XffinVP-118" value="" style="edgeStyle=orthogonalEdgeStyle;rounded=0;orthogonalLoop=1;jettySize=auto;html=1;" edge="1" parent="1" source="WWX5XaUObiMr8XffinVP-119" target="WWX5XaUObiMr8XffinVP-121">
          <mxGeometry relative="1" as="geometry" />
        </mxCell>
        <mxCell id="WWX5XaUObiMr8XffinVP-119" value="x = x - 10" style="whiteSpace=wrap;html=1;" vertex="1" parent="1">
          <mxGeometry x="1130" y="2240" width="120" height="60" as="geometry" />
        </mxCell>
        <mxCell id="WWX5XaUObiMr8XffinVP-120" value="" style="edgeStyle=orthogonalEdgeStyle;rounded=0;orthogonalLoop=1;jettySize=auto;html=1;" edge="1" parent="1" source="WWX5XaUObiMr8XffinVP-121" target="WWX5XaUObiMr8XffinVP-123">
          <mxGeometry relative="1" as="geometry" />
        </mxCell>
        <mxCell id="WWX5XaUObiMr8XffinVP-121" value="เหรียญ 10 = เหรียญ 10 - 1" style="whiteSpace=wrap;html=1;" vertex="1" parent="1">
          <mxGeometry x="1130" y="2330" width="120" height="60" as="geometry" />
        </mxCell>
        <mxCell id="WWX5XaUObiMr8XffinVP-122" style="edgeStyle=orthogonalEdgeStyle;rounded=0;orthogonalLoop=1;jettySize=auto;html=1;exitX=0.5;exitY=1;exitDx=0;exitDy=0;" edge="1" parent="1" source="WWX5XaUObiMr8XffinVP-119" target="WWX5XaUObiMr8XffinVP-119">
          <mxGeometry relative="1" as="geometry" />
        </mxCell>
        <mxCell id="WWX5XaUObiMr8XffinVP-123" value="y = y + 1" style="whiteSpace=wrap;html=1;" vertex="1" parent="1">
          <mxGeometry x="1130" y="2420" width="120" height="60" as="geometry" />
        </mxCell>
        <mxCell id="WWX5XaUObiMr8XffinVP-124" value="" style="endArrow=none;html=1;rounded=0;" edge="1" parent="1">
          <mxGeometry width="50" height="50" relative="1" as="geometry">
            <mxPoint x="1190" y="2510" as="sourcePoint" />
            <mxPoint x="1090" y="2510" as="targetPoint" />
          </mxGeometry>
        </mxCell>
        <mxCell id="WWX5XaUObiMr8XffinVP-125" value="" style="endArrow=none;html=1;rounded=0;" edge="1" parent="1">
          <mxGeometry width="50" height="50" relative="1" as="geometry">
            <mxPoint x="1090" y="2510" as="sourcePoint" />
            <mxPoint x="1090" y="1930" as="targetPoint" />
          </mxGeometry>
        </mxCell>
        <mxCell id="WWX5XaUObiMr8XffinVP-126" value="" style="endArrow=classic;html=1;rounded=0;" edge="1" parent="1">
          <mxGeometry width="50" height="50" relative="1" as="geometry">
            <mxPoint x="1090" y="1930" as="sourcePoint" />
            <mxPoint x="1180" y="1929.44" as="targetPoint" />
          </mxGeometry>
        </mxCell>
        <mxCell id="WWX5XaUObiMr8XffinVP-127" value="" style="endArrow=none;html=1;rounded=0;entryX=0.5;entryY=1;entryDx=0;entryDy=0;" edge="1" parent="1" target="WWX5XaUObiMr8XffinVP-123">
          <mxGeometry width="50" height="50" relative="1" as="geometry">
            <mxPoint x="1190" y="2510" as="sourcePoint" />
            <mxPoint x="1290" y="2450" as="targetPoint" />
          </mxGeometry>
        </mxCell>
        <mxCell id="WWX5XaUObiMr8XffinVP-128" value="" style="endArrow=none;html=1;rounded=0;" edge="1" parent="1">
          <mxGeometry width="50" height="50" relative="1" as="geometry">
            <mxPoint x="1010" y="2020" as="sourcePoint" />
            <mxPoint x="1050" y="2020" as="targetPoint" />
          </mxGeometry>
        </mxCell>
        <mxCell id="WWX5XaUObiMr8XffinVP-129" value="" style="endArrow=classic;html=1;rounded=0;" edge="1" parent="1">
          <mxGeometry width="50" height="50" relative="1" as="geometry">
            <mxPoint x="1050" y="2020" as="sourcePoint" />
            <mxPoint x="1050" y="1890" as="targetPoint" />
          </mxGeometry>
        </mxCell>
        <mxCell id="WWX5XaUObiMr8XffinVP-130" value="" style="endArrow=none;html=1;rounded=0;" edge="1" parent="1">
          <mxGeometry width="50" height="50" relative="1" as="geometry">
            <mxPoint x="1250" y="2030" as="sourcePoint" />
            <mxPoint x="1430" y="2030" as="targetPoint" />
          </mxGeometry>
        </mxCell>
        <mxCell id="WWX5XaUObiMr8XffinVP-131" value="" style="endArrow=classic;html=1;rounded=0;" edge="1" parent="1" target="WWX5XaUObiMr8XffinVP-132">
          <mxGeometry width="50" height="50" relative="1" as="geometry">
            <mxPoint x="1430" y="2030" as="sourcePoint" />
            <mxPoint x="1430" y="2060" as="targetPoint" />
          </mxGeometry>
        </mxCell>
        <mxCell id="WWX5XaUObiMr8XffinVP-132" value="" style="ellipse;whiteSpace=wrap;html=1;aspect=fixed;" vertex="1" parent="1">
          <mxGeometry x="1420" y="2060" width="20" height="20" as="geometry" />
        </mxCell>
        <mxCell id="WWX5XaUObiMr8XffinVP-133" value="" style="edgeStyle=orthogonalEdgeStyle;rounded=0;orthogonalLoop=1;jettySize=auto;html=1;" edge="1" parent="1" target="WWX5XaUObiMr8XffinVP-136">
          <mxGeometry relative="1" as="geometry">
            <mxPoint x="1430" y="2080" as="sourcePoint" />
          </mxGeometry>
        </mxCell>
        <mxCell id="WWX5XaUObiMr8XffinVP-134" value="" style="edgeStyle=orthogonalEdgeStyle;rounded=0;orthogonalLoop=1;jettySize=auto;html=1;" edge="1" parent="1" source="WWX5XaUObiMr8XffinVP-136" target="WWX5XaUObiMr8XffinVP-138">
          <mxGeometry relative="1" as="geometry" />
        </mxCell>
        <mxCell id="WWX5XaUObiMr8XffinVP-135" value="" style="edgeStyle=orthogonalEdgeStyle;rounded=0;orthogonalLoop=1;jettySize=auto;html=1;" edge="1" parent="1" source="WWX5XaUObiMr8XffinVP-136" target="WWX5XaUObiMr8XffinVP-154">
          <mxGeometry relative="1" as="geometry" />
        </mxCell>
        <mxCell id="WWX5XaUObiMr8XffinVP-136" value="x &amp;gt;= 5" style="rhombus;whiteSpace=wrap;html=1;" vertex="1" parent="1">
          <mxGeometry x="1370" y="2120" width="120" height="100" as="geometry" />
        </mxCell>
        <mxCell id="WWX5XaUObiMr8XffinVP-137" value="" style="edgeStyle=orthogonalEdgeStyle;rounded=0;orthogonalLoop=1;jettySize=auto;html=1;" edge="1" parent="1" source="WWX5XaUObiMr8XffinVP-138" target="WWX5XaUObiMr8XffinVP-140">
          <mxGeometry relative="1" as="geometry" />
        </mxCell>
        <mxCell id="WWX5XaUObiMr8XffinVP-138" value="เหรียญ 5 == 0" style="rhombus;whiteSpace=wrap;html=1;" vertex="1" parent="1">
          <mxGeometry x="1370" y="2250" width="120" height="100" as="geometry" />
        </mxCell>
        <mxCell id="WWX5XaUObiMr8XffinVP-139" value="" style="edgeStyle=orthogonalEdgeStyle;rounded=0;orthogonalLoop=1;jettySize=auto;html=1;" edge="1" parent="1" source="WWX5XaUObiMr8XffinVP-140" target="WWX5XaUObiMr8XffinVP-142">
          <mxGeometry relative="1" as="geometry" />
        </mxCell>
        <mxCell id="WWX5XaUObiMr8XffinVP-140" value="x = x - 5" style="whiteSpace=wrap;html=1;" vertex="1" parent="1">
          <mxGeometry x="1370" y="2380" width="120" height="60" as="geometry" />
        </mxCell>
        <mxCell id="WWX5XaUObiMr8XffinVP-141" value="" style="edgeStyle=orthogonalEdgeStyle;rounded=0;orthogonalLoop=1;jettySize=auto;html=1;" edge="1" parent="1" source="WWX5XaUObiMr8XffinVP-142" target="WWX5XaUObiMr8XffinVP-144">
          <mxGeometry relative="1" as="geometry" />
        </mxCell>
        <mxCell id="WWX5XaUObiMr8XffinVP-142" value="เหรียญ 10 = เหรียญ 10 - 1" style="whiteSpace=wrap;html=1;" vertex="1" parent="1">
          <mxGeometry x="1370" y="2470" width="120" height="60" as="geometry" />
        </mxCell>
        <mxCell id="WWX5XaUObiMr8XffinVP-143" style="edgeStyle=orthogonalEdgeStyle;rounded=0;orthogonalLoop=1;jettySize=auto;html=1;exitX=0.5;exitY=1;exitDx=0;exitDy=0;" edge="1" parent="1" source="WWX5XaUObiMr8XffinVP-140" target="WWX5XaUObiMr8XffinVP-140">
          <mxGeometry relative="1" as="geometry" />
        </mxCell>
        <mxCell id="WWX5XaUObiMr8XffinVP-144" value="y = y + 1" style="whiteSpace=wrap;html=1;" vertex="1" parent="1">
          <mxGeometry x="1370" y="2560" width="120" height="60" as="geometry" />
        </mxCell>
        <mxCell id="WWX5XaUObiMr8XffinVP-145" value="" style="endArrow=none;html=1;rounded=0;" edge="1" parent="1">
          <mxGeometry width="50" height="50" relative="1" as="geometry">
            <mxPoint x="1430" y="2650" as="sourcePoint" />
            <mxPoint x="1330" y="2650" as="targetPoint" />
          </mxGeometry>
        </mxCell>
        <mxCell id="WWX5XaUObiMr8XffinVP-146" value="" style="endArrow=none;html=1;rounded=0;" edge="1" parent="1">
          <mxGeometry width="50" height="50" relative="1" as="geometry">
            <mxPoint x="1330" y="2650" as="sourcePoint" />
            <mxPoint x="1330" y="2070" as="targetPoint" />
          </mxGeometry>
        </mxCell>
        <mxCell id="WWX5XaUObiMr8XffinVP-147" value="" style="endArrow=classic;html=1;rounded=0;" edge="1" parent="1">
          <mxGeometry width="50" height="50" relative="1" as="geometry">
            <mxPoint x="1330" y="2070" as="sourcePoint" />
            <mxPoint x="1420" y="2069.44" as="targetPoint" />
          </mxGeometry>
        </mxCell>
        <mxCell id="WWX5XaUObiMr8XffinVP-148" value="" style="endArrow=none;html=1;rounded=0;entryX=0.5;entryY=1;entryDx=0;entryDy=0;" edge="1" parent="1" target="WWX5XaUObiMr8XffinVP-144">
          <mxGeometry width="50" height="50" relative="1" as="geometry">
            <mxPoint x="1430" y="2650" as="sourcePoint" />
            <mxPoint x="1530" y="2590" as="targetPoint" />
          </mxGeometry>
        </mxCell>
        <mxCell id="WWX5XaUObiMr8XffinVP-149" value="" style="endArrow=none;html=1;rounded=0;" edge="1" parent="1">
          <mxGeometry width="50" height="50" relative="1" as="geometry">
            <mxPoint x="1250" y="2160" as="sourcePoint" />
            <mxPoint x="1290" y="2160" as="targetPoint" />
          </mxGeometry>
        </mxCell>
        <mxCell id="WWX5XaUObiMr8XffinVP-150" value="" style="endArrow=classic;html=1;rounded=0;" edge="1" parent="1">
          <mxGeometry width="50" height="50" relative="1" as="geometry">
            <mxPoint x="1290" y="2160" as="sourcePoint" />
            <mxPoint x="1290" y="2030" as="targetPoint" />
          </mxGeometry>
        </mxCell>
        <mxCell id="WWX5XaUObiMr8XffinVP-151" value="" style="edgeStyle=orthogonalEdgeStyle;rounded=0;orthogonalLoop=1;jettySize=auto;html=1;" edge="1" parent="1" target="WWX5XaUObiMr8XffinVP-152">
          <mxGeometry relative="1" as="geometry">
            <mxPoint x="1630" y="2290" as="sourcePoint" />
          </mxGeometry>
        </mxCell>
        <mxCell id="WWX5XaUObiMr8XffinVP-152" value="End" style="ellipse;whiteSpace=wrap;html=1;" vertex="1" parent="1">
          <mxGeometry x="1570" y="2320" width="120" height="50" as="geometry" />
        </mxCell>
        <mxCell id="WWX5XaUObiMr8XffinVP-153" value="" style="edgeStyle=orthogonalEdgeStyle;rounded=0;orthogonalLoop=1;jettySize=auto;html=1;" edge="1" parent="1" source="WWX5XaUObiMr8XffinVP-154">
          <mxGeometry relative="1" as="geometry">
            <mxPoint x="1630" y="2230" as="targetPoint" />
          </mxGeometry>
        </mxCell>
        <mxCell id="WWX5XaUObiMr8XffinVP-154" value="ทอนเงิน" style="shape=parallelogram;perimeter=parallelogramPerimeter;whiteSpace=wrap;html=1;fixedSize=1;" vertex="1" parent="1">
          <mxGeometry x="1570" y="2140" width="120" height="60" as="geometry" />
        </mxCell>
        <mxCell id="WWX5XaUObiMr8XffinVP-155" value="ส่งกาแฟให้ลูกค้า" style="shape=parallelogram;perimeter=parallelogramPerimeter;whiteSpace=wrap;html=1;fixedSize=1;" vertex="1" parent="1">
          <mxGeometry x="1570" y="2230" width="120" height="60" as="geometry" />
        </mxCell>
        <mxCell id="WWX5XaUObiMr8XffinVP-156" value="No" style="text;html=1;align=center;verticalAlign=middle;whiteSpace=wrap;rounded=0;" vertex="1" parent="1">
          <mxGeometry x="300" y="1440" width="60" height="30" as="geometry" />
        </mxCell>
        <mxCell id="WWX5XaUObiMr8XffinVP-157" value="Yes" style="text;html=1;align=center;verticalAlign=middle;whiteSpace=wrap;rounded=0;" vertex="1" parent="1">
          <mxGeometry x="180" y="1520" width="60" height="30" as="geometry" />
        </mxCell>
        <mxCell id="WWX5XaUObiMr8XffinVP-158" value="Yes" style="text;html=1;align=center;verticalAlign=middle;whiteSpace=wrap;rounded=0;" vertex="1" parent="1">
          <mxGeometry x="280" y="1570" width="60" height="30" as="geometry" />
        </mxCell>
        <mxCell id="WWX5XaUObiMr8XffinVP-159" value="Yes" style="text;html=1;align=center;verticalAlign=middle;whiteSpace=wrap;rounded=0;" vertex="1" parent="1">
          <mxGeometry x="460" y="1660" width="60" height="30" as="geometry" />
        </mxCell>
        <mxCell id="WWX5XaUObiMr8XffinVP-160" value="Yes" style="text;html=1;align=center;verticalAlign=middle;whiteSpace=wrap;rounded=0;" vertex="1" parent="1">
          <mxGeometry x="520" y="1710" width="60" height="30" as="geometry" />
        </mxCell>
        <mxCell id="WWX5XaUObiMr8XffinVP-161" value="Yes" style="text;html=1;align=center;verticalAlign=middle;whiteSpace=wrap;rounded=0;" vertex="1" parent="1">
          <mxGeometry x="700" y="1800" width="60" height="30" as="geometry" />
        </mxCell>
        <mxCell id="WWX5XaUObiMr8XffinVP-162" value="Yes" style="text;html=1;align=center;verticalAlign=middle;whiteSpace=wrap;rounded=0;" vertex="1" parent="1">
          <mxGeometry x="760" y="1850" width="60" height="30" as="geometry" />
        </mxCell>
        <mxCell id="WWX5XaUObiMr8XffinVP-163" value="Yes" style="text;html=1;align=center;verticalAlign=middle;whiteSpace=wrap;rounded=0;" vertex="1" parent="1">
          <mxGeometry x="940" y="1940" width="60" height="30" as="geometry" />
        </mxCell>
        <mxCell id="WWX5XaUObiMr8XffinVP-164" value="Yes" style="text;html=1;align=center;verticalAlign=middle;whiteSpace=wrap;rounded=0;" vertex="1" parent="1">
          <mxGeometry x="1000" y="1990" width="60" height="30" as="geometry" />
        </mxCell>
        <mxCell id="WWX5XaUObiMr8XffinVP-165" value="Yes" style="text;html=1;align=center;verticalAlign=middle;whiteSpace=wrap;rounded=0;" vertex="1" parent="1">
          <mxGeometry x="1180" y="2080" width="60" height="30" as="geometry" />
        </mxCell>
        <mxCell id="WWX5XaUObiMr8XffinVP-166" value="Yes" style="text;html=1;align=center;verticalAlign=middle;whiteSpace=wrap;rounded=0;" vertex="1" parent="1">
          <mxGeometry x="1240" y="2130" width="60" height="30" as="geometry" />
        </mxCell>
        <mxCell id="WWX5XaUObiMr8XffinVP-167" value="Yes" style="text;html=1;align=center;verticalAlign=middle;whiteSpace=wrap;rounded=0;" vertex="1" parent="1">
          <mxGeometry x="1420" y="2220" width="60" height="30" as="geometry" />
        </mxCell>
        <mxCell id="WWX5XaUObiMr8XffinVP-168" value="" style="endArrow=classic;html=1;rounded=0;" edge="1" parent="1">
          <mxGeometry width="50" height="50" relative="1" as="geometry">
            <mxPoint x="1530" y="2300" as="sourcePoint" />
            <mxPoint x="1530" y="2170" as="targetPoint" />
          </mxGeometry>
        </mxCell>
        <mxCell id="WWX5XaUObiMr8XffinVP-169" value="" style="endArrow=none;html=1;rounded=0;" edge="1" parent="1" source="WWX5XaUObiMr8XffinVP-171">
          <mxGeometry width="50" height="50" relative="1" as="geometry">
            <mxPoint x="1490" y="2299.44" as="sourcePoint" />
            <mxPoint x="1530" y="2299.44" as="targetPoint" />
          </mxGeometry>
        </mxCell>
        <mxCell id="WWX5XaUObiMr8XffinVP-170" value="" style="endArrow=none;html=1;rounded=0;" edge="1" parent="1" target="WWX5XaUObiMr8XffinVP-171">
          <mxGeometry width="50" height="50" relative="1" as="geometry">
            <mxPoint x="1490" y="2299.44" as="sourcePoint" />
            <mxPoint x="1530" y="2299.44" as="targetPoint" />
          </mxGeometry>
        </mxCell>
        <mxCell id="WWX5XaUObiMr8XffinVP-171" value="Yes" style="text;html=1;align=center;verticalAlign=middle;whiteSpace=wrap;rounded=0;" vertex="1" parent="1">
          <mxGeometry x="1470" y="2270" width="60" height="30" as="geometry" />
        </mxCell>
        <mxCell id="WWX5XaUObiMr8XffinVP-172" value="" style="endArrow=none;html=1;rounded=0;entryX=1;entryY=1;entryDx=0;entryDy=0;" edge="1" parent="1" target="WWX5XaUObiMr8XffinVP-171">
          <mxGeometry width="50" height="50" relative="1" as="geometry">
            <mxPoint x="1490" y="2300" as="sourcePoint" />
            <mxPoint x="1540" y="2250" as="targetPoint" />
          </mxGeometry>
        </mxCell>
        <mxCell id="WWX5XaUObiMr8XffinVP-173" value="No" style="text;html=1;align=center;verticalAlign=middle;whiteSpace=wrap;rounded=0;" vertex="1" parent="1">
          <mxGeometry x="530" y="1580" width="60" height="30" as="geometry" />
        </mxCell>
        <mxCell id="WWX5XaUObiMr8XffinVP-174" value="No" style="text;html=1;align=center;verticalAlign=middle;whiteSpace=wrap;rounded=0;" vertex="1" parent="1">
          <mxGeometry x="770" y="1720" width="60" height="30" as="geometry" />
        </mxCell>
        <mxCell id="WWX5XaUObiMr8XffinVP-175" value="No" style="text;html=1;align=center;verticalAlign=middle;whiteSpace=wrap;rounded=0;" vertex="1" parent="1">
          <mxGeometry x="1010" y="1860" width="60" height="30" as="geometry" />
        </mxCell>
        <mxCell id="WWX5XaUObiMr8XffinVP-176" value="No" style="text;html=1;align=center;verticalAlign=middle;whiteSpace=wrap;rounded=0;" vertex="1" parent="1">
          <mxGeometry x="1250" y="2000" width="60" height="30" as="geometry" />
        </mxCell>
        <mxCell id="WWX5XaUObiMr8XffinVP-177" value="No" style="text;html=1;align=center;verticalAlign=middle;whiteSpace=wrap;rounded=0;" vertex="1" parent="1">
          <mxGeometry x="1480" y="2140" width="60" height="30" as="geometry" />
        </mxCell>
        <mxCell id="WWX5XaUObiMr8XffinVP-178" value="No" style="text;html=1;align=center;verticalAlign=middle;whiteSpace=wrap;rounded=0;" vertex="1" parent="1">
          <mxGeometry x="290" y="1220" width="60" height="30" as="geometry" />
        </mxCell>
        <mxCell id="WWX5XaUObiMr8XffinVP-179" value="Yes" style="text;html=1;align=center;verticalAlign=middle;whiteSpace=wrap;rounded=0;" vertex="1" parent="1">
          <mxGeometry x="220" y="1300" width="60" height="30" as="geometry" />
        </mxCell>
      </root>
    </mxGraphModel>
  </diagram>
</mxfile>
